<?xml version="1.0" standalone="no"?>
<!DOCTYPE svg PUBLIC "-//W3C//DTD SVG 20010904//EN"
 "http://www.w3.org/TR/2001/REC-SVG-20010904/DTD/svg10.dtd">
<svg version="1.0" xmlns="http://www.w3.org/2000/svg"
 width="956.000000pt" height="988.000000pt" viewBox="0 0 956.000000 988.000000"
 preserveAspectRatio="xMidYMid meet">

<g transform="translate(0.000000,988.000000) scale(0.100000,-0.100000)"
fill="#000000" stroke="none">
<path d="M0 4940 l0 -4940 4780 0 4780 0 0 4940 0 4940 -4780 0 -4780 0 0
-4940z m4575 2348 c7 -36 45 -362 41 -365 -1 -1 -16 -6 -33 -9 l-30 -6 -12
104 c-24 202 -21 199 -56 53 l-31 -130 -37 -3 -36 -3 -60 118 c-33 65 -60 111
-60 103 -1 -8 6 -70 15 -138 9 -68 14 -126 11 -128 -2 -3 -17 -6 -33 -7 l-28
-2 -24 188 c-13 104 -21 191 -18 194 3 3 24 7 48 10 l43 5 65 -130 c36 -72 67
-129 68 -127 2 2 15 50 28 107 44 184 41 176 77 181 17 2 38 5 44 5 7 1 15 -8
18 -20z m759 -52 c42 -18 76 -61 76 -98 0 -66 -62 -142 -150 -184 -22 -10 -40
-22 -40 -25 0 -3 36 -13 81 -23 80 -17 81 -18 74 -44 -4 -15 -8 -29 -10 -31
-2 -2 -50 7 -107 19 -186 40 -181 39 -174 63 3 12 6 25 6 30 0 4 5 7 11 7 23
0 160 72 194 101 38 34 55 89 35 114 -27 32 -110 7 -110 -33 0 -11 -8 -13 -32
-8 -17 3 -34 9 -37 12 -12 12 36 78 69 96 41 22 69 23 114 4z m-1465 -111 c36
-18 77 -67 97 -114 20 -46 20 -131 0 -169 -35 -67 -114 -108 -196 -100 -59 6
-102 36 -137 96 -24 39 -28 59 -28 118 0 61 4 75 27 106 52 69 168 99 237 63z
m1976 -59 c18 -13 15 -21 -55 -187 -40 -96 -74 -175 -75 -177 -2 -3 -65 19
-65 23 0 2 25 61 55 131 30 70 53 130 50 134 -2 3 -22 12 -44 20 -42 13 -48
24 -31 50 7 12 14 12 43 2 44 -16 64 -15 71 3 7 19 26 19 51 1z m-2467 -233
c50 -41 87 -115 86 -174 -1 -65 -33 -111 -120 -170 l-74 -49 -106 162 -106
162 28 23 c16 13 56 37 89 54 79 40 146 38 203 -8z m2850 -23 c12 0 24 5 27
10 9 14 20 12 45 -8 l22 -18 -107 -162 c-112 -168 -108 -164 -153 -134 -11 7
4 36 64 127 87 130 86 118 16 165 -21 14 -22 16 -7 38 l16 22 29 -20 c15 -11
37 -20 48 -20z m-1918 -726 c39 -45 50 -73 50 -132 0 -55 -23 -99 -82 -155
-66 -65 -69 -107 -13 -160 32 -29 31 -70 -1 -75 -28 -4 -88 59 -103 109 -17
56 1 107 56 161 85 83 95 140 38 208 -39 46 -40 51 -23 68 21 21 45 13 78 -24z
m346 11 c28 -28 63 -100 64 -130 0 -48 -24 -95 -80 -158 -72 -82 -76 -106 -25
-167 39 -47 37 -43 29 -64 -15 -38 -69 -9 -117 64 -19 28 -22 101 -6 133 7 12
35 47 64 77 64 69 74 103 45 160 -11 22 -27 43 -35 47 -15 5 -21 44 -8 56 14
14 45 6 69 -18z m369 -22 c40 -55 52 -115 35 -167 -6 -20 -38 -65 -71 -101
-72 -80 -76 -106 -23 -165 26 -28 34 -45 29 -60 -11 -34 -49 -25 -89 22 -69
80 -62 148 24 242 83 92 88 123 29 198 -41 52 -38 78 8 78 16 0 33 -14 58 -47z
m341 15 c50 -61 67 -132 44 -192 -5 -14 -34 -52 -64 -85 -78 -85 -81 -115 -19
-183 31 -32 27 -62 -8 -66 -21 -2 -34 6 -58 35 -71 86 -64 156 25 252 78 84
82 144 15 205 -24 22 -26 37 -9 54 20 20 45 13 74 -20z m-516 -550 c36 -19 49
-32 64 -71 17 -40 18 -54 9 -87 -5 -22 -7 -40 -4 -40 3 0 47 -7 96 -15 452
-73 830 -364 1005 -772 44 -103 87 -261 95 -353 11 -123 13 -130 40 -130 30 0
45 -26 45 -77 0 -87 -43 -163 -107 -189 -27 -12 -253 -14 -1310 -14 l-1278 0
-39 23 c-57 32 -86 92 -86 178 0 69 6 79 50 79 15 0 18 13 24 83 27 313 162
594 391 816 202 196 442 312 742 361 l71 12 -5 52 c-8 77 28 136 93 156 45 13
57 12 104 -12z m-3040 -568 c0 -17 -7 -20 -50 -20 -46 0 -50 -2 -50 -24 0 -23
5 -25 48 -28 34 -2 47 -7 47 -18 0 -11 -13 -16 -47 -18 -43 -3 -48 -5 -48 -28
0 -22 4 -24 50 -24 43 0 50 -3 50 -20 0 -18 -7 -20 -70 -20 l-70 0 0 110 0
110 70 0 c63 0 70 -2 70 -20z m195 6 c16 -12 17 -16 6 -29 -10 -13 -17 -14
-31 -5 -19 12 -50 5 -50 -11 0 -6 19 -20 43 -32 48 -25 57 -35 57 -68 0 -60
-85 -84 -129 -37 -23 24 -21 46 2 46 7 0 18 -9 25 -20 14 -23 44 -26 61 -6 10
12 8 19 -8 35 -12 12 -26 21 -33 21 -19 0 -58 42 -58 62 0 47 73 75 115 44z
m255 -6 c0 -16 -7 -20 -30 -20 -16 0 -30 -3 -31 -7 0 -5 -1 -45 -1 -90 -1 -74
-3 -83 -20 -83 -16 0 -18 9 -18 90 l0 90 -35 0 c-28 0 -35 4 -35 20 0 18 7 20
85 20 78 0 85 -2 85 -20z m201 0 c28 -16 52 -76 45 -115 -10 -52 -47 -78 -116
-83 l-60 -4 0 104 c0 58 3 108 8 112 9 10 96 0 123 -14z m4677 3 c37 -32 33
-71 -14 -123 -39 -43 -35 -52 21 -47 21 1 30 -3 33 -15 3 -16 -6 -18 -82 -18
-102 0 -109 10 -42 61 76 58 97 119 42 119 -16 0 -27 -7 -31 -20 -7 -23 -45
-27 -45 -5 0 24 46 65 73 65 14 0 34 -8 45 -17z m230 -6 c31 -32 42 -78 32
-124 -11 -47 -42 -73 -85 -73 -60 0 -96 72 -75 149 18 69 85 94 128 48z m224
-8 c25 -33 16 -70 -29 -115 -31 -31 -33 -39 -9 -35 23 4 66 -12 66 -25 0 -11
-18 -14 -84 -14 -99 0 -105 10 -35 63 49 38 75 77 66 101 -9 22 -44 20 -59 -4
-7 -11 -21 -20 -30 -20 -15 0 -16 4 -7 27 22 58 86 69 121 22z m198 -80 c0
-99 -2 -110 -17 -107 -14 3 -17 16 -18 78 0 74 0 75 -27 78 -35 4 -38 32 -4
32 13 0 26 7 30 15 3 8 12 15 21 15 13 0 15 -18 15 -111z m-5160 -89 c0 -13
-7 -20 -20 -20 -13 0 -20 7 -20 20 0 13 7 20 20 20 13 0 20 -7 20 -20z m4240
-1292 c13 -51 25 -96 29 -99 3 -3 62 -2 131 2 69 4 126 6 128 4 1 -1 -5 -16
-15 -33 -19 -33 -54 -42 -170 -42 -52 0 -64 -3 -60 -14 3 -8 9 -31 13 -51 5
-30 15 -42 50 -63 24 -15 44 -29 44 -32 0 -3 -9 -16 -19 -29 l-18 -24 -153 95
c-85 52 -155 98 -157 104 -1 5 5 19 15 31 l17 22 78 -49 c42 -27 77 -44 77
-37 0 6 -14 63 -31 125 -31 113 -32 113 -13 148 10 18 22 34 25 34 4 0 17 -42
29 -92z m-3965 -40 c33 -56 62 -106 64 -111 4 -10 -26 -37 -40 -37 -5 0 -29
36 -56 80 -26 44 -51 80 -55 80 -13 0 -78 -42 -74 -48 2 -4 22 -38 45 -76 23
-37 41 -69 39 -71 -2 -1 -14 -8 -27 -15 -27 -14 -22 -17 -72 67 -17 29 -34 55
-40 58 -5 4 -37 -10 -70 -31 l-62 -37 -18 24 c-10 13 -19 26 -18 29 0 7 301
188 314 189 6 1 37 -45 70 -101z m223 -322 c31 -16 74 -61 91 -93 17 -34 13
-110 -9 -152 -37 -73 -135 -130 -203 -117 -71 13 -140 82 -153 153 -14 72 38
162 115 203 43 23 121 26 159 6z m3557 -116 l130 -130 -23 -22 -22 -22 -137
32 c-76 18 -142 32 -148 32 -5 -1 32 -40 83 -88 l93 -88 -25 -23 -24 -23 -134
130 c-133 130 -133 130 -114 151 25 27 31 27 182 -9 70 -17 129 -29 131 -26 2
2 -37 41 -86 88 l-90 85 22 21 c12 12 24 22 27 22 3 0 64 -58 135 -130z m-392
-352 l108 -150 -23 -17 c-13 -9 -26 -16 -29 -16 -7 0 -80 97 -174 229 l-48 68
24 19 c13 10 26 18 29 18 3 0 54 -68 113 -151z m-2765 117 c74 -32 112 -86
112 -163 0 -125 -122 -231 -233 -201 -43 11 -101 59 -123 100 -31 61 -10 155
49 218 57 60 123 75 195 46z m2437 -170 c52 -25 72 -96 40 -142 -15 -21 -13
-23 65 -70 44 -26 80 -50 80 -54 0 -7 -46 -29 -61 -29 -5 0 -40 20 -77 45 -70
47 -78 50 -100 36 -11 -6 -6 -23 22 -79 l36 -71 -30 -14 -29 -15 -86 165 c-47
91 -84 167 -83 169 12 11 156 74 171 74 11 0 34 -7 52 -15z m-2005 -72 c93
-41 130 -89 130 -168 0 -79 -50 -163 -110 -187 -43 -17 -114 -10 -183 17 -37
15 -67 30 -67 34 0 3 30 81 66 174 75 188 60 176 164 130z m1557 -104 c67 -25
112 -100 113 -187 0 -60 -17 -101 -56 -131 -25 -20 -183 -76 -191 -68 -8 9
-94 340 -90 350 4 14 118 45 164 46 17 1 44 -4 60 -10z m-771 -91 c38 -39 35
-88 -6 -130 -16 -16 -30 -33 -30 -37 0 -4 11 -18 25 -31 l25 -23 0 27 c0 22 4
27 16 22 9 -3 22 -6 30 -6 17 0 18 -23 2 -66 -10 -28 -9 -35 10 -59 27 -34 27
-41 1 -56 -18 -9 -25 -7 -48 14 -23 21 -29 23 -51 11 -56 -30 -166 -10 -190
35 -23 44 0 108 49 137 l30 17 -20 38 c-10 21 -19 45 -19 52 0 20 39 67 64 78
32 13 87 2 112 -23z"/>
<path d="M3733 7066 c-65 -30 -78 -108 -32 -198 54 -106 209 -72 209 46 0 47
-27 112 -57 139 -28 24 -81 30 -120 13z"/>
<path d="M3215 6791 c-73 -36 -74 -28 7 -150 l75 -111 46 40 c56 50 65 83 39
142 -38 86 -97 113 -167 79z"/>
<path d="M4765 5480 c-53 -21 -60 -88 -13 -123 27 -20 29 -20 63 -4 58 28 57
99 -2 126 -13 6 -25 11 -26 10 -1 0 -11 -4 -22 -9z"/>
<path d="M4561 5254 c-119 -21 -219 -54 -329 -105 -136 -64 -224 -123 -328
-221 -221 -210 -352 -479 -380 -781 l-7 -77 1271 0 1271 0 -5 53 c-11 102 -36
223 -64 309 -144 431 -516 742 -984 823 -108 18 -342 18 -445 -1z m484 -78
c491 -106 854 -485 928 -968 7 -45 -11 -73 -40 -64 -17 5 -23 21 -33 74 -63
347 -267 626 -575 784 -150 76 -285 113 -460 126 -75 5 -100 11 -108 24 -8 12
-7 21 3 34 13 14 28 16 115 11 55 -3 132 -13 170 -21z"/>
<path d="M3450 3970 c0 -42 23 -84 55 -98 20 -9 331 -12 1288 -12 1128 0 1265
2 1285 16 28 19 52 65 52 99 l0 25 -1340 0 -1340 0 0 -30z"/>
<path d="M2370 4880 l0 -70 34 0 c25 0 39 7 50 22 36 51 5 118 -54 118 l-30 0
0 -70z"/>
<path d="M7286 4928 c-30 -43 -13 -118 27 -118 34 0 47 19 47 70 0 69 -41 95
-74 48z"/>
<path d="M3012 3073 c-18 -8 -46 -31 -62 -50 -88 -100 22 -233 135 -163 39 24
85 88 85 119 0 35 -28 79 -60 96 -37 19 -57 19 -98 -2z"/>
<path d="M3434 2731 c-32 -14 -82 -77 -95 -119 -9 -32 -8 -44 5 -70 19 -37 62
-62 107 -62 68 0 147 123 120 187 -22 51 -90 83 -137 64z"/>
<path d="M5870 2554 c-19 -8 -36 -16 -38 -18 -6 -6 38 -86 47 -86 17 0 76 46
79 62 3 16 -30 58 -45 58 -5 -1 -24 -8 -43 -16z"/>
<path d="M3861 2393 c-24 -60 -45 -113 -47 -119 -6 -13 60 -34 106 -34 40 0
81 41 98 98 16 54 15 65 -9 96 -17 21 -86 66 -102 66 -2 0 -23 -48 -46 -107z"/>
<path d="M5403 2379 c-18 -5 -33 -15 -33 -22 1 -17 58 -218 64 -225 13 -13 99
32 117 62 22 36 23 47 8 98 -21 78 -80 111 -156 87z"/>
<path d="M4652 2318 c-16 -16 -15 -50 1 -71 11 -16 14 -16 35 -2 26 19 30 70
6 79 -22 8 -28 8 -42 -6z"/>
<path d="M4611 2134 c-35 -29 -40 -59 -12 -74 27 -14 74 -13 96 4 18 13 17 15
-11 54 -16 23 -32 42 -36 42 -3 0 -20 -12 -37 -26z"/>
</g>
</svg>
